<?xml version="1.0" encoding="UTF-8"?>
<svg id="Comendo21" xmlns="http://www.w3.org/2000/svg" version="1.1" viewBox="0 0 235.73 259.51">
  <!-- Generator: Adobe Illustrator 29.5.1, SVG Export Plug-In . SVG Version: 2.1.0 Build 141)  -->
  <defs>
    <style>
      .st0 {
        stroke-width: .1px;
      }

      .st0, .st1, .st2, .st3, .st4, .st5, .st6, .st7 {
        stroke-linecap: round;
      }

      .st0, .st2, .st3, .st4, .st5, .st6, .st7 {
        fill: none;
        stroke: #af79ba;
      }

      .st1 {
        fill: #593239;
        stroke: #593239;
      }

      .st1, .st2 {
        stroke-width: 2.39px;
      }

      .st8 {
        fill: #eeb4fa;
      }

      .st9 {
        fill: #e69df5;
      }

      .st10 {
        fill: #d9d9d9;
      }

      .st11 {
        fill: #bc83c8;
      }

      .st12 {
        fill: #bd92c5;
      }

      .st3 {
        stroke-width: .6px;
      }

      .st4 {
        stroke-width: .3px;
      }

      .st5 {
        stroke-width: .2px;
      }

      .st6 {
        stroke-width: 1.5px;
      }

      .st7 {
        stroke-width: .8px;
      }

      .st13 {
        fill: #7264a6;
      }
    </style>
  </defs>
  <path class="st13" d="M204.75,123.17c3.33,5.6,11,17.34-7.07,13.41l-106.08-12.56,29.38-62.55c2.71-5.14,23.39-14.93,26.03-10.5l57.75,72.18h-.01Z"/>
  <ellipse class="st13" cx="214.5" cy="137.37" rx="15.5" ry="17.5" transform="translate(-32.97 77.06) rotate(-18.94)"/>
  <g>
    <rect class="st8" x="24.32" y="55.22" width="166.78" height="183.54" rx="83.39" ry="83.39"/>
    <path class="st12" d="M75.01,128.36c9.16,0,18.19,8.32,16.59,18.3s-8.97,16.26-16.59,18.3c-8.85,2.37-16.59-8.19-16.59-18.3s7.43-18.3,16.59-18.3Z"/>
    <path class="st12" d="M139.75,128.02c-9.16,0-18.19,8.32-16.59,18.3s8.97,16.26,16.59,18.3c8.85,2.37,16.59-8.19,16.59-18.3,0-10.11-7.43-18.3-16.59-18.3Z"/>
    <ellipse cx="75.01" cy="140.94" rx="16.59" ry="18.3"/>
    <ellipse class="st10" cx="79.45" cy="131.08" rx="4.2" ry="3.82"/>
    <ellipse cx="139.75" cy="140.94" rx="16.59" ry="18.3"/>
    <ellipse class="st10" cx="145.17" cy="131.84" rx="4.2" ry="3.82"/>
    <path class="st1" d="M88.21,170.28c10.48-7.59,29.5-6.18,39.18.65,3.83,2.7-9.79,6.84-19.43,6.95-9.55.05-22.34-5.73-19.75-7.6Z"/>
    <ellipse class="st11" cx="58.43" cy="161.92" rx="4.79" ry="8.38" transform="translate(-110.13 196.86) rotate(-81.87)"/>
    <ellipse class="st11" cx="156.33" cy="161.92" rx="8.38" ry="4.79" transform="translate(-21.33 23.74) rotate(-8.13)"/>
    <ellipse class="st11" cx="107.71" cy="153.52" rx="5.19" ry="2.39"/>
    <path class="st2" d="M132.85,105.05c4.26-1.45,9.22-.6,11.17,0"/>
    <ellipse class="st9" cx="73.34" cy="237.3" rx="24.84" ry="9.93"/>
    <ellipse class="st9" cx="148.99" cy="237.3" rx="24.84" ry="9.93"/>
    <path class="st2" d="M69.01,105.05c4.56-1.45,9.88-.6,11.97,0"/>
  </g>
  <path class="st13" d="M131.45,36.63c20.12,5.11,53.17,65.37,50.26,65.63-7.03.63-42.47-2.41-75.4-2.66-33.3-.25-66.58,2.21-73.46,2.46-2.62.09,15.12-37,34.76-52.05,21.72-16.65,45.04-18.16,63.84-13.39Z"/>
  <path class="st7" d="M151.79,54.44s20.72,24.3,29.93,47.82"/>
  <path class="st3" d="M150.69,52.78l1.09,1.67"/>
  <path class="st5" d="M149.74,51.07l.5.93"/>
  <path class="st4" d="M150.06,51.7l.79,1.33"/>
  <path class="st0" d="M149.42,50.56l.48.76"/>
  <path class="st6" d="M87.94,169.34c4.19-3.38,14.2-5.03,19.16-4.97s16.97,1.97,20.76,5.92c4.06,4.24-10.84,8.66-19.81,8.66s-24.8-5.84-20.11-9.62Z"/>
</svg>