<?xml version="1.0" encoding="UTF-8"?>
<svg id="Camada_1" xmlns="http://www.w3.org/2000/svg" version="1.1" viewBox="0 0 235.72 259.51">
  <!-- Generator: Adobe Illustrator 29.5.1, SVG Export Plug-In . SVG Version: 2.1.0 Build 141)  -->
  <defs>
    <style>
      .st0 {
        stroke-width: .1px;
      }

      .st0, .st1, .st2, .st3, .st4, .st5, .st6 {
        fill: none;
        stroke: #af79ba;
      }

      .st0, .st2, .st3, .st4, .st5, .st6 {
        stroke-linecap: round;
      }

      .st7 {
        fill: #eeb4fa;
      }

      .st8 {
        fill: #e69df5;
      }

      .st9 {
        fill: #d9d9d9;
      }

      .st1 {
        stroke-width: 2px;
      }

      .st2 {
        stroke-width: 2.39px;
      }

      .st10 {
        fill: #bc83c8;
      }

      .st11 {
        fill: #bd92c5;
      }

      .st3 {
        stroke-width: .6px;
      }

      .st4 {
        stroke-width: .3px;
      }

      .st5 {
        stroke-width: .2px;
      }

      .st6 {
        stroke-width: .8px;
      }

      .st12 {
        fill: #7264a6;
      }
    </style>
  </defs>
  <path class="st12" d="M207.36,119.39c3.33,5.6,11,17.34-7.07,13.41l-106.08-12.56,29.38-62.55c2.71-5.14,23.39-14.93,26.03-10.5l57.75,72.18h-.01Z"/>
  <path class="st7" d="M107.86,56.61h0c46.06,0,83.39,37.33,83.39,83.39v16.76c0,46.06-37.33,83.39-83.39,83.39h0c-46.06,0-83.39-37.33-83.39-83.39v-16.76c0-46.06,37.33-83.39,83.39-83.39Z"/>
  <ellipse class="st11" cx="75.16" cy="148.05" rx="16.59" ry="18.3"/>
  <ellipse cx="75.16" cy="142.33" rx="16.59" ry="18.3"/>
  <ellipse class="st9" cx="79.6" cy="132.47" rx="4.2" ry="3.82"/>
  <ellipse class="st11" cx="139.9" cy="148.05" rx="16.59" ry="18.3"/>
  <path class="st2" d="M100.28,166.31c5.78,2.08,12.52.86,15.17,0"/>
  <ellipse cx="139.9" cy="142.33" rx="16.59" ry="18.3"/>
  <ellipse class="st9" cx="145.32" cy="132.47" rx="4.2" ry="3.82"/>
  <path class="st7" d="M126.84,127.45c.21-3.02,1.93-5.84,4.78-7.85s6.6-3.04,10.43-2.87c3.82.17,7.41,1.53,9.96,3.79,2.56,2.25,3.87,5.21,3.66,8.23l-14.42-.65-14.42-.65h.01Z"/>
  <path class="st7" d="M89.74,127.58c-.21-3.34-1.93-6.48-4.78-8.7s-6.6-3.37-10.43-3.18c-3.82.19-7.41,1.7-9.96,4.2-2.56,2.5-3.87,5.78-3.66,9.12l14.42-.72,14.42-.72h-.01Z"/>
  <path class="st12" d="M133,35.25c20.12,5.11,55.12,66.19,48.14,66.19-7.41,0-40.35-2.97-73.28-3.22-33.3-.25-66.58,2.21-73.46,2.46-2.62.09,15.12-37,34.76-52.05,21.72-16.65,45.04-18.16,63.84-13.39Z"/>
  <ellipse class="st12" cx="214.86" cy="134.37" rx="15.5" ry="17.5" transform="translate(-31.98 77.01) rotate(-18.94)"/>
  <path class="st6" d="M150.72,49.55s25.48,27.94,30.85,51.43"/>
  <path class="st3" d="M150.41,48.99l.2.42"/>
  <path class="st5" d="M149.94,47.99l.08.28"/>
  <ellipse class="st10" cx="58.57" cy="166.88" rx="8.38" ry="4.79"/>
  <ellipse class="st10" cx="107.86" cy="154.91" rx="5.19" ry="2.39"/>
  <ellipse class="st10" cx="156.49" cy="166.88" rx="8.38" ry="4.79"/>
  <path class="st2" d="M134.32,114.35c4.26-1.45,9.22-.6,11.17,0"/>
  <ellipse class="st8" cx="73.49" cy="238.69" rx="24.84" ry="9.93"/>
  <ellipse class="st8" cx="149.14" cy="238.69" rx="24.84" ry="9.93"/>
  <path class="st2" d="M68.38,114.36c4.56-1.45,9.88-.6,11.97,0"/>
  <path class="st4" d="M150.05,48.34l.21.58"/>
  <path class="st0" d="M149.9,47.81v.1"/>
  <polyline class="st1" points="99.21 166.68 108.08 168.24 116.51 166.68"/>
</svg>