<?xml version="1.0" encoding="UTF-8"?>
<svg id="Camada_1" xmlns="http://www.w3.org/2000/svg" version="1.1" viewBox="0 0 235.72 259.51">
  <!-- Generator: Adobe Illustrator 29.5.1, SVG Export Plug-In . SVG Version: 2.1.0 Build 141)  -->
  <defs>
    <style>
      .st0 {
        stroke-width: .1px;
      }

      .st0, .st1, .st2, .st3, .st4, .st5, .st6, .st7 {
        fill: none;
        stroke: #af79ba;
      }

      .st0, .st2, .st3, .st4, .st5, .st6, .st7 {
        stroke-linecap: round;
      }

      .st1, .st6 {
        stroke-width: 1.5px;
      }

      .st8 {
        fill: #eeb4fa;
      }

      .st9 {
        fill: #e69df5;
      }

      .st10 {
        fill: #d9d9d9;
      }

      .st2 {
        stroke-width: 2.39px;
      }

      .st11 {
        fill: #bc83c8;
      }

      .st12 {
        fill: #bd92c5;
      }

      .st3 {
        stroke-width: .6px;
      }

      .st4 {
        stroke-width: .3px;
      }

      .st5 {
        stroke-width: .2px;
      }

      .st7 {
        stroke-width: .8px;
      }

      .st13 {
        fill: #7264a6;
      }
    </style>
  </defs>
  <path class="st13" d="M204.33,119.67c3.29,5.53,10.86,17.12-6.98,13.24l-104.72-12.4,29-61.74c2.68-5.07,23.09-14.74,25.7-10.36l57.01,71.25h-.01Z"/>
  <path class="st8" d="M106.11,57.7h0c45.46,0,82.32,36.85,82.32,82.32v16.54c0,45.46-36.85,82.32-82.32,82.32h0c-45.46,0-82.32-36.85-82.32-82.32v-16.54c0-45.46,36.85-82.32,82.32-82.32Z"/>
  <ellipse class="st12" cx="73.83" cy="147.96" rx="16.38" ry="18.06"/>
  <ellipse cx="73.83" cy="142.31" rx="16.38" ry="18.06"/>
  <ellipse class="st10" cx="78.21" cy="132.58" rx="4.15" ry="3.77"/>
  <ellipse class="st12" cx="137.74" cy="147.96" rx="16.38" ry="18.06"/>
  <path class="st6" d="M96.24,167.11c7.71,2.45,16.68,1.01,20.21,0"/>
  <ellipse cx="137.74" cy="142.31" rx="16.38" ry="18.06"/>
  <ellipse class="st10" cx="143.09" cy="132.58" rx="4.15" ry="3.77"/>
  <path class="st8" d="M124.85,126.22c.21-2.82,1.91-5.45,4.72-7.33,2.81-1.88,6.52-2.84,10.3-2.68,3.77.16,7.31,1.43,9.83,3.54,2.53,2.1,3.82,4.87,3.61,7.68l-14.23-.61-14.23-.61h0Z"/>
  <path class="st13" d="M130.93,36.6c19.86,5.05,54.41,65.34,47.52,65.34-7.31,0-39.83-2.93-72.34-3.17-32.87-.25-65.73,2.18-72.51,2.43-2.59.09,14.93-36.52,34.31-51.38,21.44-16.43,44.46-17.93,63.02-13.21Z"/>
  <ellipse class="st13" cx="213.96" cy="133.69" rx="15.3" ry="17.27" transform="translate(-31.81 76.69) rotate(-18.94)"/>
  <path class="st7" d="M148.42,50.73s25.15,27.58,30.46,50.77"/>
  <path class="st3" d="M148.11,50.17l.2.41"/>
  <path class="st5" d="M147.65,49.18l.08.27"/>
  <ellipse class="st11" cx="57.46" cy="166.02" rx="8.27" ry="4.73"/>
  <ellipse class="st11" cx="106.11" cy="154.73" rx="5.12" ry="2.36"/>
  <ellipse class="st11" cx="154.12" cy="166.02" rx="8.27" ry="4.73"/>
  <path class="st2" d="M132.23,112.42c4.21-1.43,9.1-.59,11.03,0"/>
  <ellipse class="st9" cx="72.18" cy="237.43" rx="24.52" ry="9.8"/>
  <ellipse class="st9" cx="146.86" cy="237.43" rx="24.52" ry="9.8"/>
  <path class="st2" d="M67.14,112.42c4.5-1.43,9.75-.59,11.82,0"/>
  <path class="st4" d="M147.76,49.53l.21.57"/>
  <path class="st0" d="M147.6,49v.1"/>
  <path class="st8" d="M59.6,126.22c.21-2.82,1.91-5.45,4.72-7.33,2.81-1.88,6.52-2.84,10.3-2.68,3.77.16,7.31,1.43,9.83,3.54,2.53,2.1,3.82,4.87,3.61,7.68l-14.23-.61-14.23-.61h0Z"/>
  <path class="st1" d="M97,167.52s4.63,3.23,9.34,3.25c3.88,0,9.02-3.25,9.02-3.25"/>
</svg>