<?xml version="1.0" encoding="UTF-8"?>
<svg id="Camada_1" xmlns="http://www.w3.org/2000/svg" version="1.1" viewBox="0 0 235.72 259.51">
  <!-- Generator: Adobe Illustrator 29.5.1, SVG Export Plug-In . SVG Version: 2.1.0 Build 141)  -->
  <defs>
    <style>
      .st0 {
        stroke-width: .1px;
      }

      .st0, .st1, .st2, .st3, .st4, .st5, .st6, .st7 {
        fill: none;
        stroke: #af79ba;
      }

      .st0, .st2, .st3, .st4, .st5, .st6, .st7 {
        stroke-linecap: round;
      }

      .st8 {
        fill: #eeb4fa;
      }

      .st9 {
        fill: #e69df5;
      }

      .st10 {
        fill: #d9d9d9;
      }

      .st1 {
        stroke-width: 2px;
      }

      .st2 {
        stroke-width: 2.39px;
      }

      .st11 {
        fill: #bc83c8;
      }

      .st12 {
        fill: #bd92c5;
      }

      .st3 {
        stroke-width: .6px;
      }

      .st4 {
        stroke-width: .3px;
      }

      .st5 {
        stroke-width: .2px;
      }

      .st6 {
        stroke-width: 1.5px;
      }

      .st7 {
        stroke-width: .8px;
      }

      .st13 {
        fill: #7264a6;
      }
    </style>
  </defs>
  <path class="st13" d="M207.96,119.39c3.33,5.6,11,17.34-7.07,13.41l-106.08-12.56,29.38-62.55c2.71-5.14,23.39-14.93,26.03-10.5l57.75,72.18h-.01Z"/>
  <path class="st8" d="M108.46,56.61h0c46.06,0,83.39,37.33,83.39,83.39v16.76c0,46.06-37.33,83.39-83.39,83.39h0c-46.06,0-83.39-37.33-83.39-83.39v-16.76c0-46.06,37.33-83.39,83.39-83.39Z"/>
  <ellipse class="st12" cx="75.76" cy="148.05" rx="16.59" ry="18.3"/>
  <ellipse cx="75.76" cy="142.33" rx="16.59" ry="18.3"/>
  <ellipse class="st10" cx="80.2" cy="132.47" rx="4.2" ry="3.82"/>
  <ellipse class="st12" cx="140.5" cy="148.05" rx="16.59" ry="18.3"/>
  <path class="st6" d="M98.46,167.46c7.81,2.48,16.9,1.03,20.47,0"/>
  <ellipse cx="140.5" cy="142.33" rx="16.59" ry="18.3"/>
  <ellipse class="st10" cx="145.92" cy="132.47" rx="4.2" ry="3.82"/>
  <path class="st8" d="M127.44,124.62c.21-2.85,1.93-5.53,4.78-7.43s6.6-2.88,10.43-2.72c3.82.16,7.41,1.45,9.96,3.59,2.56,2.13,3.87,4.93,3.66,7.78l-14.42-.62-14.42-.62h.01Z"/>
  <path class="st13" d="M133.6,35.25c20.12,5.11,55.12,66.19,48.14,66.19-7.41,0-40.35-2.97-73.28-3.22-33.3-.25-66.58,2.21-73.46,2.46-2.62.09,15.12-37,34.76-52.05,21.72-16.65,45.04-18.16,63.84-13.39Z"/>
  <ellipse class="st13" cx="217.72" cy="133.59" rx="15.5" ry="17.5" transform="translate(-31.57 77.9) rotate(-18.94)"/>
  <path class="st7" d="M151.32,49.55s25.48,27.94,30.85,51.43"/>
  <path class="st3" d="M152.83,48.98l.2.42"/>
  <path class="st5" d="M152.37,47.98l.08.28"/>
  <ellipse class="st11" cx="59.17" cy="166.35" rx="8.38" ry="4.79"/>
  <ellipse class="st11" cx="108.46" cy="154.91" rx="5.19" ry="2.39"/>
  <ellipse class="st11" cx="157.09" cy="166.35" rx="8.38" ry="4.79"/>
  <path class="st2" d="M134.91,112.05c4.26-1.45,9.22-.6,11.17,0"/>
  <ellipse class="st9" cx="74.09" cy="238.69" rx="24.84" ry="9.93"/>
  <ellipse class="st9" cx="149.74" cy="238.69" rx="24.84" ry="9.93"/>
  <path class="st2" d="M68.98,112.05c4.56-1.45,9.88-.6,11.97,0"/>
  <path class="st4" d="M152.48,48.33l.21.58"/>
  <path class="st0" d="M152.32,47.8v.1"/>
  <path class="st8" d="M61.34,124.62c.21-2.85,1.93-5.53,4.78-7.43s6.6-2.88,10.43-2.72c3.82.16,7.41,1.45,9.96,3.59,2.56,2.13,3.87,4.93,3.66,7.78l-14.42-.62-14.42-.62h.01Z"/>
  <path class="st1" d="M99.23,167.87s5.62,3.65,9.46,3.65,9.14-3.65,9.14-3.65"/>
</svg>